<mxfile host="app.diagrams.net" modified="2024-07-19T03:36:35.754Z" agent="Mozilla/5.0 (Macintosh; Intel Mac OS X 10_15_7) AppleWebKit/605.1.15 (KHTML, like Gecko) Version/17.5 Safari/605.1.15" etag="DjKFnfHlXWQVTKbxrsuJ" version="24.7.1" type="github">
  <diagram name="페이지-1" id="hANh1gCqF2Qmf2RqWDbh">
    <mxGraphModel dx="2432" dy="1197" grid="1" gridSize="10" guides="1" tooltips="1" connect="1" arrows="1" fold="1" page="0" pageScale="1" pageWidth="1920" pageHeight="1200" math="0" shadow="0">
      <root>
        <mxCell id="0" />
        <mxCell id="1" parent="0" />
        <mxCell id="k_W3MqZSjInvSIY3PvVt-6" value="KVaser" style="rounded=0;whiteSpace=wrap;html=1;" vertex="1" parent="1">
          <mxGeometry x="138.72983870967744" y="124.4" width="77.74193548387098" height="27.2" as="geometry" />
        </mxCell>
        <mxCell id="k_W3MqZSjInvSIY3PvVt-94" style="edgeStyle=orthogonalEdgeStyle;rounded=0;orthogonalLoop=1;jettySize=auto;html=1;exitX=0.5;exitY=1;exitDx=0;exitDy=0;entryX=0.5;entryY=0;entryDx=0;entryDy=0;" edge="1" parent="1" source="k_W3MqZSjInvSIY3PvVt-27" target="k_W3MqZSjInvSIY3PvVt-87">
          <mxGeometry relative="1" as="geometry">
            <mxPoint x="279.9999999999998" y="470" as="targetPoint" />
          </mxGeometry>
        </mxCell>
        <mxCell id="k_W3MqZSjInvSIY3PvVt-27" value="Mode, Velocity, Steer Angle" style="text;html=1;align=center;verticalAlign=middle;whiteSpace=wrap;rounded=0;" vertex="1" parent="1">
          <mxGeometry x="95" y="155" width="165.20161290322582" height="20.4" as="geometry" />
        </mxCell>
        <mxCell id="k_W3MqZSjInvSIY3PvVt-93" style="edgeStyle=orthogonalEdgeStyle;rounded=0;orthogonalLoop=1;jettySize=auto;html=1;exitX=0.5;exitY=1;exitDx=0;exitDy=0;" edge="1" parent="1" source="k_W3MqZSjInvSIY3PvVt-28" target="k_W3MqZSjInvSIY3PvVt-87">
          <mxGeometry relative="1" as="geometry" />
        </mxCell>
        <mxCell id="k_W3MqZSjInvSIY3PvVt-28" value="KIAPI Signal" style="text;html=1;align=center;verticalAlign=middle;whiteSpace=wrap;rounded=0;" vertex="1" parent="1">
          <mxGeometry x="318.508064516129" y="154.32" width="165.20161290322582" height="20.4" as="geometry" />
        </mxCell>
        <mxCell id="k_W3MqZSjInvSIY3PvVt-29" value="&lt;span style=&quot;text-align: left;&quot;&gt;Position ( Lat, Long ),&amp;nbsp;&lt;/span&gt;&lt;div&gt;&lt;span style=&quot;text-align: left;&quot;&gt;Heading (True north)&lt;/span&gt;&lt;span style=&quot;text-align: left;&quot;&gt;&amp;nbsp;&lt;/span&gt;&lt;/div&gt;" style="text;html=1;align=center;verticalAlign=middle;whiteSpace=wrap;rounded=0;" vertex="1" parent="1">
          <mxGeometry x="571.1693548387098" y="131.2" width="170.06048387096774" height="27.2" as="geometry" />
        </mxCell>
        <mxCell id="k_W3MqZSjInvSIY3PvVt-30" value="Point Cloud" style="text;html=1;align=center;verticalAlign=middle;whiteSpace=wrap;rounded=0;" vertex="1" parent="1">
          <mxGeometry x="833.5483870967743" y="131.2" width="165.20161290322582" height="20.4" as="geometry" />
        </mxCell>
        <mxCell id="k_W3MqZSjInvSIY3PvVt-31" value="Image" style="text;html=1;align=center;verticalAlign=middle;whiteSpace=wrap;rounded=0;" vertex="1" parent="1">
          <mxGeometry x="1134.7983870967741" y="134.6" width="165.20161290322582" height="20.4" as="geometry" />
        </mxCell>
        <mxCell id="k_W3MqZSjInvSIY3PvVt-32" value="KVaser" style="rounded=0;whiteSpace=wrap;html=1;" vertex="1" parent="1">
          <mxGeometry x="362.23790322580646" y="124.4" width="77.74193548387098" height="27.2" as="geometry" />
        </mxCell>
        <mxCell id="k_W3MqZSjInvSIY3PvVt-45" value="&lt;span style=&quot;caret-color: rgb(0, 0, 0); color: rgb(0, 0, 0); font-family: Helvetica; font-size: 12px; font-style: normal; font-variant-caps: normal; font-weight: 400; letter-spacing: normal; orphans: auto; text-align: center; text-indent: 0px; text-transform: none; white-space: normal; widows: auto; word-spacing: 0px; -webkit-text-stroke-width: 0px; background-color: rgb(251, 251, 251); text-decoration: none; display: inline !important; float: none;&quot;&gt;3D Detection&lt;/span&gt;" style="shape=hexagon;perimeter=hexagonPerimeter2;whiteSpace=wrap;html=1;fixedSize=1;" vertex="1" parent="1">
          <mxGeometry x="1168.8104838709678" y="165.2" width="116.61290322580645" height="54.4" as="geometry" />
        </mxCell>
        <mxCell id="k_W3MqZSjInvSIY3PvVt-46" value="&lt;span style=&quot;caret-color: rgb(0, 0, 0); color: rgb(0, 0, 0); font-family: Helvetica; font-size: 12px; font-style: normal; font-variant-caps: normal; font-weight: 400; letter-spacing: normal; orphans: auto; text-align: center; text-indent: 0px; text-transform: none; white-space: normal; widows: auto; word-spacing: 0px; -webkit-text-stroke-width: 0px; background-color: rgb(251, 251, 251); text-decoration: none; display: inline !important; float: none;&quot;&gt;Calibration&lt;/span&gt;" style="shape=hexagon;perimeter=hexagonPerimeter2;whiteSpace=wrap;html=1;fixedSize=1;" vertex="1" parent="1">
          <mxGeometry x="595.4637096774194" y="165.2" width="116.61290322580645" height="54.4" as="geometry" />
        </mxCell>
        <mxCell id="k_W3MqZSjInvSIY3PvVt-47" value="IMU Dead reckoning" style="rounded=0;whiteSpace=wrap;html=1;" vertex="1" parent="1">
          <mxGeometry x="595.4637096774194" y="233.2" width="116.61290322580645" height="40.8" as="geometry" />
        </mxCell>
        <mxCell id="k_W3MqZSjInvSIY3PvVt-49" value="LiDAR Odomertry" style="rounded=0;whiteSpace=wrap;html=1;" vertex="1" parent="1">
          <mxGeometry x="595.4637096774194" y="294.4" width="116.61290322580645" height="40.8" as="geometry" />
        </mxCell>
        <mxCell id="k_W3MqZSjInvSIY3PvVt-50" value="" style="endArrow=classic;html=1;rounded=0;exitX=0.5;exitY=1;exitDx=0;exitDy=0;" edge="1" parent="1" source="k_W3MqZSjInvSIY3PvVt-47" target="k_W3MqZSjInvSIY3PvVt-49">
          <mxGeometry width="50" height="50" relative="1" as="geometry">
            <mxPoint x="546.875" y="355.59999999999997" as="sourcePoint" />
            <mxPoint x="595.4637096774194" y="321.6" as="targetPoint" />
          </mxGeometry>
        </mxCell>
        <mxCell id="k_W3MqZSjInvSIY3PvVt-51" value="Algorithm 1" style="rounded=0;whiteSpace=wrap;html=1;" vertex="1" parent="1">
          <mxGeometry x="1168.8104838709678" y="233.2" width="116.61290322580645" height="40.8" as="geometry" />
        </mxCell>
        <mxCell id="k_W3MqZSjInvSIY3PvVt-52" value="Algorithm 1" style="rounded=0;whiteSpace=wrap;html=1;" vertex="1" parent="1">
          <mxGeometry x="1168.8104838709678" y="294.4" width="116.61290322580645" height="40.8" as="geometry" />
        </mxCell>
        <mxCell id="k_W3MqZSjInvSIY3PvVt-53" value="" style="endArrow=classic;html=1;rounded=0;exitX=0.5;exitY=1;exitDx=0;exitDy=0;" edge="1" parent="1" source="k_W3MqZSjInvSIY3PvVt-51" target="k_W3MqZSjInvSIY3PvVt-52">
          <mxGeometry width="50" height="50" relative="1" as="geometry">
            <mxPoint x="1120.2217741935485" y="355.59999999999997" as="sourcePoint" />
            <mxPoint x="1168.8104838709678" y="321.6" as="targetPoint" />
          </mxGeometry>
        </mxCell>
        <mxCell id="k_W3MqZSjInvSIY3PvVt-54" value="Obstacle List" style="shape=parallelogram;perimeter=parallelogramPerimeter;whiteSpace=wrap;html=1;fixedSize=1;" vertex="1" parent="1">
          <mxGeometry x="857.8427419354839" y="389.59999999999997" width="116.61290322580645" height="40.8" as="geometry" />
        </mxCell>
        <mxCell id="k_W3MqZSjInvSIY3PvVt-55" value="Obstacle List" style="shape=parallelogram;perimeter=parallelogramPerimeter;whiteSpace=wrap;html=1;fixedSize=1;" vertex="1" parent="1">
          <mxGeometry x="1168.8104838709678" y="389.59999999999997" width="116.61290322580645" height="40.8" as="geometry" />
        </mxCell>
        <mxCell id="k_W3MqZSjInvSIY3PvVt-79" style="edgeStyle=orthogonalEdgeStyle;rounded=0;orthogonalLoop=1;jettySize=auto;html=1;exitX=0.5;exitY=1;exitDx=0;exitDy=0;entryX=0.5;entryY=0;entryDx=0;entryDy=0;" edge="1" parent="1" source="k_W3MqZSjInvSIY3PvVt-56" target="k_W3MqZSjInvSIY3PvVt-58">
          <mxGeometry relative="1" as="geometry" />
        </mxCell>
        <mxCell id="k_W3MqZSjInvSIY3PvVt-56" value="Filtering" style="shape=hexagon;perimeter=hexagonPerimeter2;whiteSpace=wrap;html=1;fixedSize=1;" vertex="1" parent="1">
          <mxGeometry x="1018.1854838709678" y="459.99999999999994" width="116.61290322580645" height="54.4" as="geometry" />
        </mxCell>
        <mxCell id="k_W3MqZSjInvSIY3PvVt-58" value="Conver to ENU" style="rounded=0;whiteSpace=wrap;html=1;" vertex="1" parent="1">
          <mxGeometry x="1018.1854838709678" y="527.9999999999999" width="116.61290322580645" height="40.8" as="geometry" />
        </mxCell>
        <mxCell id="k_W3MqZSjInvSIY3PvVt-59" value="Convert to Frenet" style="rounded=0;whiteSpace=wrap;html=1;" vertex="1" parent="1">
          <mxGeometry x="1018.1854838709678" y="589.1999999999999" width="116.61290322580645" height="40.8" as="geometry" />
        </mxCell>
        <mxCell id="k_W3MqZSjInvSIY3PvVt-60" value="" style="endArrow=classic;html=1;rounded=0;exitX=0.5;exitY=1;exitDx=0;exitDy=0;" edge="1" source="k_W3MqZSjInvSIY3PvVt-58" target="k_W3MqZSjInvSIY3PvVt-59" parent="1">
          <mxGeometry width="50" height="50" relative="1" as="geometry">
            <mxPoint x="969.5967741935484" y="650.4" as="sourcePoint" />
            <mxPoint x="1018.1854838709678" y="616.4" as="targetPoint" />
          </mxGeometry>
        </mxCell>
        <mxCell id="k_W3MqZSjInvSIY3PvVt-61" value="" style="endArrow=classic;html=1;rounded=0;exitX=0.5;exitY=1;exitDx=0;exitDy=0;" edge="1" target="k_W3MqZSjInvSIY3PvVt-62" parent="1">
          <mxGeometry width="50" height="50" relative="1" as="geometry">
            <mxPoint x="1076.491935483871" y="630" as="sourcePoint" />
            <mxPoint x="1018.1854838709678" y="677.5999999999999" as="targetPoint" />
          </mxGeometry>
        </mxCell>
        <mxCell id="k_W3MqZSjInvSIY3PvVt-82" style="edgeStyle=orthogonalEdgeStyle;rounded=0;orthogonalLoop=1;jettySize=auto;html=1;exitX=0.5;exitY=1;exitDx=0;exitDy=0;entryX=0.5;entryY=0;entryDx=0;entryDy=0;" edge="1" parent="1" source="k_W3MqZSjInvSIY3PvVt-62" target="k_W3MqZSjInvSIY3PvVt-63">
          <mxGeometry relative="1" as="geometry" />
        </mxCell>
        <mxCell id="k_W3MqZSjInvSIY3PvVt-62" value="Frenet Filtering by&lt;div&gt;Lane number&lt;/div&gt;" style="rounded=0;whiteSpace=wrap;html=1;" vertex="1" parent="1">
          <mxGeometry x="1018.1854838709678" y="650.4" width="116.61290322580645" height="40.8" as="geometry" />
        </mxCell>
        <mxCell id="k_W3MqZSjInvSIY3PvVt-63" value="Obstacle List" style="shape=parallelogram;perimeter=parallelogramPerimeter;whiteSpace=wrap;html=1;fixedSize=1;" vertex="1" parent="1">
          <mxGeometry x="1018.1854838709678" y="711.5999999999999" width="116.61290322580645" height="40.8" as="geometry" />
        </mxCell>
        <mxCell id="k_W3MqZSjInvSIY3PvVt-65" value="" style="edgeStyle=elbowEdgeStyle;elbow=vertical;endArrow=classic;html=1;curved=0;rounded=0;endSize=8;startSize=8;exitX=0.5;exitY=1;exitDx=0;exitDy=0;" edge="1" parent="1" source="k_W3MqZSjInvSIY3PvVt-54" target="k_W3MqZSjInvSIY3PvVt-56">
          <mxGeometry width="50" height="50" relative="1" as="geometry">
            <mxPoint x="585.7459677419355" y="627.6" as="sourcePoint" />
            <mxPoint x="634.3346774193549" y="593.6" as="targetPoint" />
          </mxGeometry>
        </mxCell>
        <mxCell id="k_W3MqZSjInvSIY3PvVt-66" value="" style="edgeStyle=elbowEdgeStyle;elbow=vertical;endArrow=classic;html=1;curved=0;rounded=0;endSize=8;startSize=8;exitX=0.5;exitY=1;exitDx=0;exitDy=0;entryX=0.5;entryY=0;entryDx=0;entryDy=0;" edge="1" parent="1" source="k_W3MqZSjInvSIY3PvVt-55" target="k_W3MqZSjInvSIY3PvVt-56">
          <mxGeometry width="50" height="50" relative="1" as="geometry">
            <mxPoint x="906.4314516129033" y="505.2" as="sourcePoint" />
            <mxPoint x="1066.774193548387" y="532.4" as="targetPoint" />
          </mxGeometry>
        </mxCell>
        <mxCell id="k_W3MqZSjInvSIY3PvVt-68" value="" style="endArrow=classic;html=1;rounded=0;exitX=0.5;exitY=1;exitDx=0;exitDy=0;entryX=0.5;entryY=0;entryDx=0;entryDy=0;" edge="1" parent="1" source="k_W3MqZSjInvSIY3PvVt-46" target="k_W3MqZSjInvSIY3PvVt-47">
          <mxGeometry width="50" height="50" relative="1" as="geometry">
            <mxPoint x="867.5604838709678" y="484.8" as="sourcePoint" />
            <mxPoint x="1076.491935483871" y="586.8" as="targetPoint" />
          </mxGeometry>
        </mxCell>
        <mxCell id="k_W3MqZSjInvSIY3PvVt-69" value="" style="endArrow=classic;html=1;rounded=0;exitX=0.5;exitY=1;exitDx=0;exitDy=0;" edge="1" parent="1" source="k_W3MqZSjInvSIY3PvVt-45" target="k_W3MqZSjInvSIY3PvVt-51">
          <mxGeometry width="50" height="50" relative="1" as="geometry">
            <mxPoint x="653.7701612903226" y="219.6" as="sourcePoint" />
            <mxPoint x="906.4314516129033" y="226.4" as="targetPoint" />
          </mxGeometry>
        </mxCell>
        <mxCell id="k_W3MqZSjInvSIY3PvVt-70" value="&lt;span style=&quot;caret-color: rgb(0, 0, 0); color: rgb(0, 0, 0); font-family: Helvetica; font-size: 12px; font-style: normal; font-variant-caps: normal; font-weight: 400; letter-spacing: normal; orphans: auto; text-align: center; text-indent: 0px; text-transform: none; white-space: normal; widows: auto; word-spacing: 0px; -webkit-text-stroke-width: 0px; background-color: rgb(251, 251, 251); text-decoration: none; display: inline !important; float: none;&quot;&gt;Clustering&lt;/span&gt;" style="shape=hexagon;perimeter=hexagonPerimeter2;whiteSpace=wrap;html=1;fixedSize=1;" vertex="1" parent="1">
          <mxGeometry x="857.8427419354839" y="165.2" width="116.61290322580645" height="54.4" as="geometry" />
        </mxCell>
        <mxCell id="k_W3MqZSjInvSIY3PvVt-71" value="Algorithm 1" style="rounded=0;whiteSpace=wrap;html=1;" vertex="1" parent="1">
          <mxGeometry x="857.8427419354839" y="233.2" width="116.61290322580645" height="40.8" as="geometry" />
        </mxCell>
        <mxCell id="k_W3MqZSjInvSIY3PvVt-72" value="Algorithm 1" style="rounded=0;whiteSpace=wrap;html=1;" vertex="1" parent="1">
          <mxGeometry x="857.8427419354839" y="294.4" width="116.61290322580645" height="40.8" as="geometry" />
        </mxCell>
        <mxCell id="k_W3MqZSjInvSIY3PvVt-73" value="" style="endArrow=classic;html=1;rounded=0;exitX=0.5;exitY=1;exitDx=0;exitDy=0;" edge="1" source="k_W3MqZSjInvSIY3PvVt-71" target="k_W3MqZSjInvSIY3PvVt-72" parent="1">
          <mxGeometry width="50" height="50" relative="1" as="geometry">
            <mxPoint x="809.2540322580645" y="355.59999999999997" as="sourcePoint" />
            <mxPoint x="857.8427419354839" y="321.6" as="targetPoint" />
          </mxGeometry>
        </mxCell>
        <mxCell id="k_W3MqZSjInvSIY3PvVt-74" value="" style="endArrow=classic;html=1;rounded=0;exitX=0.5;exitY=1;exitDx=0;exitDy=0;entryX=0.5;entryY=0;entryDx=0;entryDy=0;" edge="1" source="k_W3MqZSjInvSIY3PvVt-70" target="k_W3MqZSjInvSIY3PvVt-71" parent="1">
          <mxGeometry width="50" height="50" relative="1" as="geometry">
            <mxPoint x="1129.9395161290322" y="484.8" as="sourcePoint" />
            <mxPoint x="1338.8709677419356" y="586.8" as="targetPoint" />
          </mxGeometry>
        </mxCell>
        <mxCell id="k_W3MqZSjInvSIY3PvVt-86" style="edgeStyle=orthogonalEdgeStyle;rounded=0;orthogonalLoop=1;jettySize=auto;html=1;exitX=0.5;exitY=1;exitDx=0;exitDy=0;entryX=0.5;entryY=0;entryDx=0;entryDy=0;" edge="1" parent="1" source="k_W3MqZSjInvSIY3PvVt-75" target="k_W3MqZSjInvSIY3PvVt-78">
          <mxGeometry relative="1" as="geometry" />
        </mxCell>
        <mxCell id="k_W3MqZSjInvSIY3PvVt-75" value="Filtered Position,Heading" style="shape=parallelogram;perimeter=parallelogramPerimeter;whiteSpace=wrap;html=1;fixedSize=1;" vertex="1" parent="1">
          <mxGeometry x="595.4637096774194" y="348.8" width="116.61290322580645" height="40.8" as="geometry" />
        </mxCell>
        <mxCell id="k_W3MqZSjInvSIY3PvVt-76" value="" style="endArrow=classic;html=1;rounded=0;exitX=0.5;exitY=1;exitDx=0;exitDy=0;entryX=0.5;entryY=0;entryDx=0;entryDy=0;" edge="1" parent="1" source="k_W3MqZSjInvSIY3PvVt-49" target="k_W3MqZSjInvSIY3PvVt-75">
          <mxGeometry width="50" height="50" relative="1" as="geometry">
            <mxPoint x="770.383064516129" y="342" as="sourcePoint" />
            <mxPoint x="653.7701612903226" y="294.4" as="targetPoint" />
          </mxGeometry>
        </mxCell>
        <mxCell id="k_W3MqZSjInvSIY3PvVt-81" style="edgeStyle=orthogonalEdgeStyle;rounded=0;orthogonalLoop=1;jettySize=auto;html=1;exitX=0.5;exitY=1;exitDx=0;exitDy=0;entryX=0.5;entryY=0;entryDx=0;entryDy=0;" edge="1" parent="1" source="k_W3MqZSjInvSIY3PvVt-78" target="k_W3MqZSjInvSIY3PvVt-80">
          <mxGeometry relative="1" as="geometry">
            <mxPoint x="653.771935483871" y="530.0000000000001" as="sourcePoint" />
          </mxGeometry>
        </mxCell>
        <mxCell id="k_W3MqZSjInvSIY3PvVt-99" style="edgeStyle=orthogonalEdgeStyle;rounded=0;orthogonalLoop=1;jettySize=auto;html=1;exitX=0.5;exitY=1;exitDx=0;exitDy=0;entryX=0.5;entryY=0;entryDx=0;entryDy=0;" edge="1" parent="1" source="k_W3MqZSjInvSIY3PvVt-78" target="k_W3MqZSjInvSIY3PvVt-96">
          <mxGeometry relative="1" as="geometry" />
        </mxCell>
        <mxCell id="k_W3MqZSjInvSIY3PvVt-78" value="Converting" style="shape=hexagon;perimeter=hexagonPerimeter2;whiteSpace=wrap;html=1;fixedSize=1;" vertex="1" parent="1">
          <mxGeometry x="595.4654838709678" y="459.99999999999994" width="116.61290322580645" height="54.4" as="geometry" />
        </mxCell>
        <mxCell id="k_W3MqZSjInvSIY3PvVt-84" style="edgeStyle=orthogonalEdgeStyle;rounded=0;orthogonalLoop=1;jettySize=auto;html=1;exitX=0.5;exitY=1;exitDx=0;exitDy=0;entryX=0.5;entryY=0;entryDx=0;entryDy=0;" edge="1" parent="1" source="k_W3MqZSjInvSIY3PvVt-80" target="k_W3MqZSjInvSIY3PvVt-83">
          <mxGeometry relative="1" as="geometry" />
        </mxCell>
        <mxCell id="k_W3MqZSjInvSIY3PvVt-80" value="Conver to ENU" style="rounded=0;whiteSpace=wrap;html=1;" vertex="1" parent="1">
          <mxGeometry x="539.9954838709677" y="543.5999999999999" width="116.61290322580645" height="40.8" as="geometry" />
        </mxCell>
        <mxCell id="k_W3MqZSjInvSIY3PvVt-83" value="Local Pose" style="shape=parallelogram;perimeter=parallelogramPerimeter;whiteSpace=wrap;html=1;fixedSize=1;" vertex="1" parent="1">
          <mxGeometry x="539.9954838709677" y="604.8" width="116.61290322580645" height="40.8" as="geometry" />
        </mxCell>
        <mxCell id="k_W3MqZSjInvSIY3PvVt-92" style="edgeStyle=orthogonalEdgeStyle;rounded=0;orthogonalLoop=1;jettySize=auto;html=1;exitX=0.5;exitY=1;exitDx=0;exitDy=0;entryX=0.5;entryY=0;entryDx=0;entryDy=0;" edge="1" parent="1" source="k_W3MqZSjInvSIY3PvVt-87" target="k_W3MqZSjInvSIY3PvVt-91">
          <mxGeometry relative="1" as="geometry" />
        </mxCell>
        <mxCell id="k_W3MqZSjInvSIY3PvVt-87" value="Transition" style="shape=hexagon;perimeter=hexagonPerimeter2;whiteSpace=wrap;html=1;fixedSize=1;" vertex="1" parent="1">
          <mxGeometry x="219.99548387096775" y="459.99999999999994" width="116.61290322580645" height="54.4" as="geometry" />
        </mxCell>
        <mxCell id="k_W3MqZSjInvSIY3PvVt-91" value="ACC/EPS ON" style="shape=parallelogram;perimeter=parallelogramPerimeter;whiteSpace=wrap;html=1;fixedSize=1;" vertex="1" parent="1">
          <mxGeometry x="219.99548387096775" y="529.9999999999999" width="116.61290322580645" height="40.8" as="geometry" />
        </mxCell>
        <mxCell id="k_W3MqZSjInvSIY3PvVt-95" style="edgeStyle=orthogonalEdgeStyle;rounded=0;orthogonalLoop=1;jettySize=auto;html=1;exitX=0.5;exitY=1;exitDx=0;exitDy=0;entryX=0.5;entryY=0;entryDx=0;entryDy=0;" edge="1" source="k_W3MqZSjInvSIY3PvVt-96" target="k_W3MqZSjInvSIY3PvVt-97" parent="1">
          <mxGeometry relative="1" as="geometry" />
        </mxCell>
        <mxCell id="k_W3MqZSjInvSIY3PvVt-96" value="Convert to Absolute Heading" style="rounded=0;whiteSpace=wrap;html=1;" vertex="1" parent="1">
          <mxGeometry x="669.9954838709677" y="543.5999999999999" width="116.61290322580645" height="40.8" as="geometry" />
        </mxCell>
        <mxCell id="k_W3MqZSjInvSIY3PvVt-97" value="Absolute Heading" style="shape=parallelogram;perimeter=parallelogramPerimeter;whiteSpace=wrap;html=1;fixedSize=1;" vertex="1" parent="1">
          <mxGeometry x="669.9954838709677" y="604.8" width="116.61290322580645" height="40.8" as="geometry" />
        </mxCell>
        <mxCell id="k_W3MqZSjInvSIY3PvVt-141" style="edgeStyle=orthogonalEdgeStyle;rounded=0;orthogonalLoop=1;jettySize=auto;html=1;exitX=0;exitY=0;exitDx=70;exitDy=80;exitPerimeter=0;" edge="1" parent="1" source="k_W3MqZSjInvSIY3PvVt-100" target="k_W3MqZSjInvSIY3PvVt-116">
          <mxGeometry relative="1" as="geometry" />
        </mxCell>
        <mxCell id="k_W3MqZSjInvSIY3PvVt-142" style="edgeStyle=orthogonalEdgeStyle;rounded=0;orthogonalLoop=1;jettySize=auto;html=1;exitX=0;exitY=0;exitDx=70;exitDy=80;exitPerimeter=0;" edge="1" parent="1" source="k_W3MqZSjInvSIY3PvVt-100" target="k_W3MqZSjInvSIY3PvVt-118">
          <mxGeometry relative="1" as="geometry" />
        </mxCell>
        <mxCell id="k_W3MqZSjInvSIY3PvVt-100" value="Planning" style="shape=cube;whiteSpace=wrap;html=1;boundedLbl=1;backgroundOutline=1;darkOpacity=0.05;darkOpacity2=0.1;" vertex="1" parent="1">
          <mxGeometry x="610" y="810" width="120" height="80" as="geometry" />
        </mxCell>
        <mxCell id="k_W3MqZSjInvSIY3PvVt-101" value="&lt;span style=&quot;caret-color: rgb(0, 0, 0); color: rgb(0, 0, 0); font-family: Helvetica; font-size: 12px; font-style: normal; font-variant-caps: normal; font-weight: 400; letter-spacing: normal; orphans: auto; text-align: center; text-indent: 0px; text-transform: none; white-space: normal; widows: auto; word-spacing: 0px; -webkit-text-stroke-width: 0px; background-color: rgb(255, 255, 255); text-decoration: none; display: inline !important; float: none;&quot;&gt;Controller&lt;/span&gt;" style="shape=cylinder3;whiteSpace=wrap;html=1;boundedLbl=1;backgroundOutline=1;size=15;" vertex="1" parent="1">
          <mxGeometry x="147.6" y="44.39999999999998" width="60" height="80" as="geometry" />
        </mxCell>
        <mxCell id="k_W3MqZSjInvSIY3PvVt-102" value="&lt;span style=&quot;caret-color: rgb(0, 0, 0); color: rgb(0, 0, 0); font-family: Helvetica; font-size: 12px; font-style: normal; font-variant-caps: normal; font-weight: 400; letter-spacing: normal; orphans: auto; text-align: center; text-indent: 0px; text-transform: none; white-space: normal; widows: auto; word-spacing: 0px; -webkit-text-stroke-width: 0px; background-color: rgb(255, 255, 255); text-decoration: none; display: inline !important; float: none;&quot;&gt;OBU&lt;/span&gt;" style="shape=cylinder3;whiteSpace=wrap;html=1;boundedLbl=1;backgroundOutline=1;size=15;" vertex="1" parent="1">
          <mxGeometry x="371.11" y="44.39999999999998" width="60" height="80" as="geometry" />
        </mxCell>
        <mxCell id="k_W3MqZSjInvSIY3PvVt-103" value="&lt;span style=&quot;caret-color: rgb(0, 0, 0); color: rgb(0, 0, 0); font-family: Helvetica; font-size: 12px; font-style: normal; font-variant-caps: normal; font-weight: 400; letter-spacing: normal; orphans: auto; text-align: center; text-indent: 0px; text-transform: none; white-space: normal; widows: auto; word-spacing: 0px; -webkit-text-stroke-width: 0px; background-color: rgb(255, 255, 255); text-decoration: none; display: inline !important; float: none;&quot;&gt;GPS/INS&lt;/span&gt;" style="shape=cylinder3;whiteSpace=wrap;html=1;boundedLbl=1;backgroundOutline=1;size=15;" vertex="1" parent="1">
          <mxGeometry x="623.77" y="44.39999999999998" width="60" height="80" as="geometry" />
        </mxCell>
        <mxCell id="k_W3MqZSjInvSIY3PvVt-104" value="LiDAR" style="shape=cylinder3;whiteSpace=wrap;html=1;boundedLbl=1;backgroundOutline=1;size=15;" vertex="1" parent="1">
          <mxGeometry x="880" y="51.199999999999974" width="60" height="80" as="geometry" />
        </mxCell>
        <mxCell id="k_W3MqZSjInvSIY3PvVt-105" value="Stereo Camera" style="shape=cylinder3;whiteSpace=wrap;html=1;boundedLbl=1;backgroundOutline=1;size=15;" vertex="1" parent="1">
          <mxGeometry x="1187.4" y="51.199999999999974" width="60" height="80" as="geometry" />
        </mxCell>
        <mxCell id="k_W3MqZSjInvSIY3PvVt-106" value="map_lane" style="shape=cube;whiteSpace=wrap;html=1;boundedLbl=1;backgroundOutline=1;darkOpacity=0.05;darkOpacity2=0.1;" vertex="1" parent="1">
          <mxGeometry x="970" y="810" width="120" height="80" as="geometry" />
        </mxCell>
        <mxCell id="k_W3MqZSjInvSIY3PvVt-108" value="Control" style="shape=cube;whiteSpace=wrap;html=1;boundedLbl=1;backgroundOutline=1;darkOpacity=0.05;darkOpacity2=0.1;" vertex="1" parent="1">
          <mxGeometry x="239.99999999999994" y="810" width="120" height="80" as="geometry" />
        </mxCell>
        <mxCell id="k_W3MqZSjInvSIY3PvVt-109" value="Transmitter" style="shape=cube;whiteSpace=wrap;html=1;boundedLbl=1;backgroundOutline=1;darkOpacity=0.05;darkOpacity2=0.1;" vertex="1" parent="1">
          <mxGeometry x="-20" y="810" width="120" height="80" as="geometry" />
        </mxCell>
        <mxCell id="k_W3MqZSjInvSIY3PvVt-114" value="Visualizer" style="shape=cube;whiteSpace=wrap;html=1;boundedLbl=1;backgroundOutline=1;darkOpacity=0.05;darkOpacity2=0.1;" vertex="1" parent="1">
          <mxGeometry x="1210" y="810" width="120" height="80" as="geometry" />
        </mxCell>
        <mxCell id="k_W3MqZSjInvSIY3PvVt-115" value="UI" style="shape=cube;whiteSpace=wrap;html=1;boundedLbl=1;backgroundOutline=1;darkOpacity=0.05;darkOpacity2=0.1;" vertex="1" parent="1">
          <mxGeometry x="1442.6" y="810" width="120" height="80" as="geometry" />
        </mxCell>
        <mxCell id="k_W3MqZSjInvSIY3PvVt-143" style="edgeStyle=orthogonalEdgeStyle;rounded=0;orthogonalLoop=1;jettySize=auto;html=1;exitX=0.5;exitY=1;exitDx=0;exitDy=0;entryX=0.5;entryY=0;entryDx=0;entryDy=0;" edge="1" parent="1" source="k_W3MqZSjInvSIY3PvVt-116" target="k_W3MqZSjInvSIY3PvVt-134">
          <mxGeometry relative="1" as="geometry" />
        </mxCell>
        <mxCell id="k_W3MqZSjInvSIY3PvVt-116" value="&lt;span style=&quot;background-color: rgb(251, 251, 251);&quot;&gt;Global Path Initialization&lt;/span&gt;" style="shape=hexagon;perimeter=hexagonPerimeter2;whiteSpace=wrap;html=1;fixedSize=1;" vertex="1" parent="1">
          <mxGeometry x="483.71370967741933" y="950" width="116.61290322580645" height="54.4" as="geometry" />
        </mxCell>
        <mxCell id="k_W3MqZSjInvSIY3PvVt-170" style="edgeStyle=orthogonalEdgeStyle;rounded=0;orthogonalLoop=1;jettySize=auto;html=1;exitX=0.5;exitY=1;exitDx=0;exitDy=0;entryX=0.5;entryY=0;entryDx=0;entryDy=0;" edge="1" parent="1" source="k_W3MqZSjInvSIY3PvVt-117" target="k_W3MqZSjInvSIY3PvVt-169">
          <mxGeometry relative="1" as="geometry" />
        </mxCell>
        <mxCell id="k_W3MqZSjInvSIY3PvVt-117" value="&lt;span style=&quot;background-color: rgb(251, 251, 251);&quot;&gt;Local Path Planner&lt;/span&gt;" style="shape=hexagon;perimeter=hexagonPerimeter2;whiteSpace=wrap;html=1;fixedSize=1;" vertex="1" parent="1">
          <mxGeometry x="624.6137096774194" y="1590" width="116.61290322580645" height="54.4" as="geometry" />
        </mxCell>
        <mxCell id="k_W3MqZSjInvSIY3PvVt-161" style="edgeStyle=orthogonalEdgeStyle;rounded=0;orthogonalLoop=1;jettySize=auto;html=1;exitX=0.5;exitY=1;exitDx=0;exitDy=0;entryX=0.5;entryY=0;entryDx=0;entryDy=0;" edge="1" parent="1" source="k_W3MqZSjInvSIY3PvVt-118" target="k_W3MqZSjInvSIY3PvVt-122">
          <mxGeometry relative="1" as="geometry" />
        </mxCell>
        <mxCell id="k_W3MqZSjInvSIY3PvVt-118" value="&lt;span style=&quot;background-color: rgb(251, 251, 251);&quot;&gt;Dynamic&lt;/span&gt;&lt;div&gt;&lt;span style=&quot;background-color: rgb(251, 251, 251);&quot;&gt;Global Path Planning&lt;/span&gt;&lt;/div&gt;" style="shape=hexagon;perimeter=hexagonPerimeter2;whiteSpace=wrap;html=1;fixedSize=1;" vertex="1" parent="1">
          <mxGeometry x="750.0037096774194" y="950" width="116.61290322580645" height="54.4" as="geometry" />
        </mxCell>
        <mxCell id="k_W3MqZSjInvSIY3PvVt-149" style="edgeStyle=orthogonalEdgeStyle;rounded=0;orthogonalLoop=1;jettySize=auto;html=1;exitX=0.5;exitY=1;exitDx=0;exitDy=0;" edge="1" parent="1" source="k_W3MqZSjInvSIY3PvVt-119" target="k_W3MqZSjInvSIY3PvVt-120">
          <mxGeometry relative="1" as="geometry" />
        </mxCell>
        <mxCell id="k_W3MqZSjInvSIY3PvVt-119" value="Calculate Node,Edge &amp;amp; Save" style="rounded=0;whiteSpace=wrap;html=1;" vertex="1" parent="1">
          <mxGeometry x="414.85548387096776" y="1370" width="116.61290322580645" height="40.8" as="geometry" />
        </mxCell>
        <mxCell id="k_W3MqZSjInvSIY3PvVt-150" style="edgeStyle=orthogonalEdgeStyle;rounded=0;orthogonalLoop=1;jettySize=auto;html=1;exitX=0.5;exitY=1;exitDx=0;exitDy=0;entryX=0.5;entryY=0;entryDx=0;entryDy=0;" edge="1" parent="1" source="k_W3MqZSjInvSIY3PvVt-120">
          <mxGeometry relative="1" as="geometry">
            <mxPoint x="473.15193548387106" y="1510" as="targetPoint" />
          </mxGeometry>
        </mxCell>
        <mxCell id="k_W3MqZSjInvSIY3PvVt-120" value="Pruning" style="rounded=0;whiteSpace=wrap;html=1;" vertex="1" parent="1">
          <mxGeometry x="414.84548387096777" y="1440" width="116.61290322580645" height="40.8" as="geometry" />
        </mxCell>
        <mxCell id="k_W3MqZSjInvSIY3PvVt-160" style="edgeStyle=orthogonalEdgeStyle;rounded=0;orthogonalLoop=1;jettySize=auto;html=1;exitX=0.5;exitY=1;exitDx=0;exitDy=0;entryX=0.5;entryY=0;entryDx=0;entryDy=0;" edge="1" parent="1" source="k_W3MqZSjInvSIY3PvVt-122" target="k_W3MqZSjInvSIY3PvVt-128">
          <mxGeometry relative="1" as="geometry" />
        </mxCell>
        <mxCell id="k_W3MqZSjInvSIY3PvVt-122" value="Dijkstra Algorithm" style="rounded=0;whiteSpace=wrap;html=1;" vertex="1" parent="1">
          <mxGeometry x="750.0054838709677" y="1030" width="116.61290322580645" height="40.8" as="geometry" />
        </mxCell>
        <mxCell id="k_W3MqZSjInvSIY3PvVt-147" style="edgeStyle=orthogonalEdgeStyle;rounded=0;orthogonalLoop=1;jettySize=auto;html=1;exitX=0.5;exitY=1;exitDx=0;exitDy=0;" edge="1" parent="1" source="k_W3MqZSjInvSIY3PvVt-124" target="k_W3MqZSjInvSIY3PvVt-132">
          <mxGeometry relative="1" as="geometry" />
        </mxCell>
        <mxCell id="k_W3MqZSjInvSIY3PvVt-124" value="Load Race Line" style="rounded=0;whiteSpace=wrap;html=1;" vertex="1" parent="1">
          <mxGeometry x="414.85548387096776" y="1230" width="116.61290322580645" height="40.8" as="geometry" />
        </mxCell>
        <mxCell id="k_W3MqZSjInvSIY3PvVt-156" style="edgeStyle=orthogonalEdgeStyle;rounded=0;orthogonalLoop=1;jettySize=auto;html=1;exitX=0.5;exitY=1;exitDx=0;exitDy=0;entryX=0.5;entryY=0;entryDx=0;entryDy=0;" edge="1" parent="1" source="k_W3MqZSjInvSIY3PvVt-125" target="k_W3MqZSjInvSIY3PvVt-126">
          <mxGeometry relative="1" as="geometry" />
        </mxCell>
        <mxCell id="k_W3MqZSjInvSIY3PvVt-125" value="Generate Node, Edge" style="rounded=0;whiteSpace=wrap;html=1;" vertex="1" parent="1">
          <mxGeometry x="750.0154838709677" y="1240" width="116.61290322580645" height="40.8" as="geometry" />
        </mxCell>
        <mxCell id="k_W3MqZSjInvSIY3PvVt-155" style="edgeStyle=orthogonalEdgeStyle;rounded=0;orthogonalLoop=1;jettySize=auto;html=1;exitX=0.5;exitY=1;exitDx=0;exitDy=0;" edge="1" parent="1" source="k_W3MqZSjInvSIY3PvVt-126" target="k_W3MqZSjInvSIY3PvVt-154">
          <mxGeometry relative="1" as="geometry" />
        </mxCell>
        <mxCell id="k_W3MqZSjInvSIY3PvVt-126" value="Pruning" style="rounded=0;whiteSpace=wrap;html=1;" vertex="1" parent="1">
          <mxGeometry x="750.0054838709677" y="1310" width="116.61290322580645" height="40.8" as="geometry" />
        </mxCell>
        <mxCell id="k_W3MqZSjInvSIY3PvVt-159" style="edgeStyle=orthogonalEdgeStyle;rounded=0;orthogonalLoop=1;jettySize=auto;html=1;exitX=0.5;exitY=1;exitDx=0;exitDy=0;entryX=0.5;entryY=0;entryDx=0;entryDy=0;" edge="1" parent="1" source="k_W3MqZSjInvSIY3PvVt-128" target="k_W3MqZSjInvSIY3PvVt-133">
          <mxGeometry relative="1" as="geometry" />
        </mxCell>
        <mxCell id="k_W3MqZSjInvSIY3PvVt-128" value="Save Dynamic Path" style="rounded=0;whiteSpace=wrap;html=1;" vertex="1" parent="1">
          <mxGeometry x="750.0154838709677" y="1100" width="116.61290322580645" height="40.8" as="geometry" />
        </mxCell>
        <mxCell id="k_W3MqZSjInvSIY3PvVt-148" style="edgeStyle=orthogonalEdgeStyle;rounded=0;orthogonalLoop=1;jettySize=auto;html=1;exitX=0.5;exitY=1;exitDx=0;exitDy=0;entryX=0.5;entryY=0;entryDx=0;entryDy=0;" edge="1" parent="1" source="k_W3MqZSjInvSIY3PvVt-132" target="k_W3MqZSjInvSIY3PvVt-119">
          <mxGeometry relative="1" as="geometry" />
        </mxCell>
        <mxCell id="k_W3MqZSjInvSIY3PvVt-132" value="Generate Graph" style="rounded=0;whiteSpace=wrap;html=1;" vertex="1" parent="1">
          <mxGeometry x="409.99548387096775" y="1300" width="116.61290322580645" height="40.8" as="geometry" />
        </mxCell>
        <mxCell id="k_W3MqZSjInvSIY3PvVt-157" style="edgeStyle=orthogonalEdgeStyle;rounded=0;orthogonalLoop=1;jettySize=auto;html=1;exitX=0.5;exitY=1;exitDx=0;exitDy=0;entryX=0.5;entryY=0;entryDx=0;entryDy=0;" edge="1" parent="1" source="k_W3MqZSjInvSIY3PvVt-133" target="k_W3MqZSjInvSIY3PvVt-125">
          <mxGeometry relative="1" as="geometry" />
        </mxCell>
        <mxCell id="k_W3MqZSjInvSIY3PvVt-133" value="Calculate Node,Edge &amp;amp; Save" style="rounded=0;whiteSpace=wrap;html=1;" vertex="1" parent="1">
          <mxGeometry x="750.0154838709677" y="1170" width="116.61290322580645" height="40.8" as="geometry" />
        </mxCell>
        <mxCell id="k_W3MqZSjInvSIY3PvVt-144" style="edgeStyle=orthogonalEdgeStyle;rounded=0;orthogonalLoop=1;jettySize=auto;html=1;exitX=0.5;exitY=1;exitDx=0;exitDy=0;entryX=0.5;entryY=0;entryDx=0;entryDy=0;" edge="1" parent="1" source="k_W3MqZSjInvSIY3PvVt-134" target="k_W3MqZSjInvSIY3PvVt-135">
          <mxGeometry relative="1" as="geometry" />
        </mxCell>
        <mxCell id="k_W3MqZSjInvSIY3PvVt-134" value="Check Graph Log" style="rounded=0;whiteSpace=wrap;html=1;" vertex="1" parent="1">
          <mxGeometry x="478.85548387096776" y="1030" width="116.61290322580645" height="40.8" as="geometry" />
        </mxCell>
        <mxCell id="k_W3MqZSjInvSIY3PvVt-145" style="edgeStyle=orthogonalEdgeStyle;rounded=0;orthogonalLoop=1;jettySize=auto;html=1;exitX=0.5;exitY=1;exitDx=0;exitDy=0;entryX=0.5;entryY=0;entryDx=0;entryDy=0;" edge="1" parent="1" source="k_W3MqZSjInvSIY3PvVt-135" target="k_W3MqZSjInvSIY3PvVt-124">
          <mxGeometry relative="1" as="geometry" />
        </mxCell>
        <mxCell id="k_W3MqZSjInvSIY3PvVt-146" style="edgeStyle=orthogonalEdgeStyle;rounded=0;orthogonalLoop=1;jettySize=auto;html=1;exitX=1;exitY=0.5;exitDx=0;exitDy=0;" edge="1" parent="1" source="k_W3MqZSjInvSIY3PvVt-135" target="k_W3MqZSjInvSIY3PvVt-138">
          <mxGeometry relative="1" as="geometry" />
        </mxCell>
        <mxCell id="k_W3MqZSjInvSIY3PvVt-135" value="Exist?" style="rhombus;whiteSpace=wrap;html=1;" vertex="1" parent="1">
          <mxGeometry x="502" y="1094" width="80" height="80" as="geometry" />
        </mxCell>
        <mxCell id="k_W3MqZSjInvSIY3PvVt-164" style="edgeStyle=orthogonalEdgeStyle;rounded=0;orthogonalLoop=1;jettySize=auto;html=1;exitX=0.5;exitY=1;exitDx=0;exitDy=0;entryX=0.5;entryY=0;entryDx=0;entryDy=0;" edge="1" parent="1" source="k_W3MqZSjInvSIY3PvVt-138" target="k_W3MqZSjInvSIY3PvVt-163">
          <mxGeometry relative="1" as="geometry" />
        </mxCell>
        <mxCell id="k_W3MqZSjInvSIY3PvVt-138" value="Load Race line Graph" style="rounded=0;whiteSpace=wrap;html=1;" vertex="1" parent="1">
          <mxGeometry x="576.0254838709677" y="1230" width="116.61290322580645" height="40.8" as="geometry" />
        </mxCell>
        <mxCell id="k_W3MqZSjInvSIY3PvVt-166" style="edgeStyle=orthogonalEdgeStyle;rounded=0;orthogonalLoop=1;jettySize=auto;html=1;exitX=0.5;exitY=1;exitDx=0;exitDy=0;entryX=0.5;entryY=0;entryDx=0;entryDy=0;" edge="1" parent="1" source="k_W3MqZSjInvSIY3PvVt-153" target="k_W3MqZSjInvSIY3PvVt-117">
          <mxGeometry relative="1" as="geometry" />
        </mxCell>
        <mxCell id="k_W3MqZSjInvSIY3PvVt-153" value="Global Path" style="shape=parallelogram;perimeter=parallelogramPerimeter;whiteSpace=wrap;html=1;fixedSize=1;" vertex="1" parent="1">
          <mxGeometry x="413" y="1510" width="120" height="40" as="geometry" />
        </mxCell>
        <mxCell id="k_W3MqZSjInvSIY3PvVt-167" style="edgeStyle=orthogonalEdgeStyle;rounded=0;orthogonalLoop=1;jettySize=auto;html=1;exitX=0.5;exitY=1;exitDx=0;exitDy=0;entryX=0.5;entryY=0;entryDx=0;entryDy=0;" edge="1" parent="1" source="k_W3MqZSjInvSIY3PvVt-154" target="k_W3MqZSjInvSIY3PvVt-117">
          <mxGeometry relative="1" as="geometry" />
        </mxCell>
        <mxCell id="k_W3MqZSjInvSIY3PvVt-154" value="Global Path" style="shape=parallelogram;perimeter=parallelogramPerimeter;whiteSpace=wrap;html=1;fixedSize=1;" vertex="1" parent="1">
          <mxGeometry x="748.31" y="1380.8" width="120" height="40" as="geometry" />
        </mxCell>
        <mxCell id="k_W3MqZSjInvSIY3PvVt-168" style="edgeStyle=orthogonalEdgeStyle;rounded=0;orthogonalLoop=1;jettySize=auto;html=1;exitX=0.5;exitY=1;exitDx=0;exitDy=0;" edge="1" parent="1" source="k_W3MqZSjInvSIY3PvVt-163" target="k_W3MqZSjInvSIY3PvVt-117">
          <mxGeometry relative="1" as="geometry" />
        </mxCell>
        <mxCell id="k_W3MqZSjInvSIY3PvVt-163" value="Global Path" style="shape=parallelogram;perimeter=parallelogramPerimeter;whiteSpace=wrap;html=1;fixedSize=1;" vertex="1" parent="1">
          <mxGeometry x="574.3299999999999" y="1300.8" width="120" height="40" as="geometry" />
        </mxCell>
        <mxCell id="k_W3MqZSjInvSIY3PvVt-172" style="edgeStyle=orthogonalEdgeStyle;rounded=0;orthogonalLoop=1;jettySize=auto;html=1;exitX=0.5;exitY=1;exitDx=0;exitDy=0;entryX=0.5;entryY=0;entryDx=0;entryDy=0;" edge="1" parent="1" source="k_W3MqZSjInvSIY3PvVt-169" target="k_W3MqZSjInvSIY3PvVt-171">
          <mxGeometry relative="1" as="geometry" />
        </mxCell>
        <mxCell id="k_W3MqZSjInvSIY3PvVt-169" value="Generate Local Path" style="rounded=0;whiteSpace=wrap;html=1;" vertex="1" parent="1">
          <mxGeometry x="624.6154838709678" y="1670" width="116.61290322580645" height="40.8" as="geometry" />
        </mxCell>
        <mxCell id="k_W3MqZSjInvSIY3PvVt-171" value="Generate Local Path" style="rounded=0;whiteSpace=wrap;html=1;" vertex="1" parent="1">
          <mxGeometry x="624.6154838709678" y="1740" width="116.61290322580645" height="40.8" as="geometry" />
        </mxCell>
      </root>
    </mxGraphModel>
  </diagram>
</mxfile>
